<svg xmlns="http://www.w3.org/2000/svg" viewBox="0 0 64 64" role="img" aria-label="StreamFlix">
  <defs>
    <linearGradient id="sf-bg" x1="0%" y1="0%" x2="100%" y2="100%">
      <stop offset="0%" stop-color="#ef4444" />
      <stop offset="100%" stop-color="#b91c1c" />
    </linearGradient>
  </defs>
  <rect width="64" height="64" rx="16" fill="url(#sf-bg)" />
  <path
    fill="#ffffff"
    d="M22 18.5c0-1.2 1.3-1.9 2.3-1.3l20.8 12.7c1 .6 1 2 0 2.6L24.3 45.2c-1 .6-2.3-.1-2.3-1.3V18.5z"
  />
  <path
    fill="#ffffff"
    fill-opacity="0.92"
    d="M14 46.5V17.5c0-1.1.9-2 2-2h3.2c1.1 0 2 .9 2 2v29c0 1.1-.9 2-2 2H16c-1.1 0-2-.9-2-2z"
  />
</svg>
